:version 1.10
:name ASF
:units
  mass 1
  length 1
  angle deg
:documentation
  ASF file generated by Kaydara
:root
  axis xyz
  order  tx ty tz rx ry rz
  position 0 0 0
  orientation 0 0 0
:bonedata
  begin
    id 1
    name lfemurDummy
    direction 0.61522 -0.761478 0.204097
    length 5.68318
    axis 0 -0 0 xyz
  end
  begin
    id 2
    name lfemur
    direction 0.34202 -0.939693 -5.84747e-008
    length 16.9147
    axis 0 -0 20 xyz
    dof rx ry rz
    limits( -inf , inf )
( -inf , inf )
( -inf , inf )

  end
  begin
    id 3
    name ltibia
    direction 0.34202 -0.939693 1.20839e-009
    length 18.0532
    axis 0 -0 20 xyz
    dof rz ry rx
    limits( -inf , inf )
( -inf , inf )
( -inf , inf )

  end
  begin
    id 4
    name lfoot
    direction 0.0841971 -0.23133 0.969225
    length 5.23822
    axis -90 7.62852e-016 20 xyz
    dof ry rx rz
    limits( -inf , inf )
( -inf , inf )
( -inf , inf )

  end
  begin
    id 5
    name ltoes
    direction 0 0 0
    length 0
    axis 0 0 0 xyz
    dof rz ry rx
    limits( -inf , inf )
( -inf , inf )
( -inf , inf )

  end
  begin
    id 6
    name rfemurDummy
    direction -0.625247 -0.75382 0.202044
    length 5.74091
    axis 0 -0 0 xyz
  end
  begin
    id 7
    name rfemur
    direction -0.34202 -0.939693 -1.47013e-008
    length 16.4922
    axis 0 -0 -20 xyz
    dof rx ry rz
    limits( -inf , inf )
( -inf , inf )
( -inf , inf )

  end
  begin
    id 8
    name rtibia
    direction -0.34202 -0.939693 -7.74345e-010
    length 18.2421
    axis 0 -0 -20 xyz
    dof rz ry rx
    limits( -inf , inf )
( -inf , inf )
( -inf , inf )

  end
  begin
    id 9
    name rfoot
    direction -0.124331 -0.341598 0.931586
    length 5.45787
    axis -90 -7.62852e-016 -20 xyz
    dof ry rx rz
    limits( -inf , inf )
( -inf , inf )
( -inf , inf )

  end
  begin
    id 10
    name rtoes
    direction 0 0 0
    length 0
    axis 0 0 0 xyz
    dof rz ry rx
    limits( -inf , inf )
( -inf , inf )
( -inf , inf )

  end
  begin
    id 11
    name lowerbackDummy
    direction 0 0 0
    length 0
    axis 0 -0 0 xyz
  end
  begin
    id 12
    name lowerback
    direction -0.0218484 0.994884 -0.0986304
    length 4.45607
    axis 0 -0 0 xyz
    dof rx ry rz
    limits( -inf , inf )
( -inf , inf )
( -inf , inf )

  end
  begin
    id 13
    name upperback
    direction -0.00973057 0.999717 -0.0217111
    length 4.47449
    axis 0 -0 0 xyz
    dof rx ry rz
    limits( -inf , inf )
( -inf , inf )
( -inf , inf )

  end
  begin
    id 14
    name thorax
    direction -0.000928171 0.999699 0.0245198
    length 4.50973
    axis 0 -0 0 xyz
    dof rx ry rz
    limits( -inf , inf )
( -inf , inf )
( -inf , inf )

  end
  begin
    id 15
    name rclavicle
    direction -0.9009 0.425937 -0.0834055
    length 7.28587
    axis 0 -0 0 xyz
    dof rx ry rz
    limits( -inf , inf )
( -inf , inf )
( -inf , inf )

  end
  begin
    id 16
    name rhumerus
    direction -1 -2.23604e-007 -1.42637e-007
    length 13.5704
    axis 180 30 90 xyz
    dof rx ry rz
    limits( -inf , inf )
( -inf , inf )
( -inf , inf )

  end
  begin
    id 17
    name rradius
    direction -1 5.68281e-008 -4.4952e-007
    length 8.06782
    axis 180 30 90 xyz
    dof rz ry rx
    limits( -inf , inf )
( -inf , inf )
( -inf , inf )

  end
  begin
    id 18
    name rwrist
    direction -1 1.51393e-007 1.38143e-007
    length 4.03391
    axis -90 -90 0 xyz
    dof rz rx ry
    limits( -inf , inf )
( -inf , inf )
( -inf , inf )

  end
  begin
    id 19
    name rthumb
    direction 0 0 0
    length 0
    axis 0 0 0 xyz
    dof ry rx rz
    limits( -inf , inf )
( -inf , inf )
( -inf , inf )

  end
  begin
    id 20
    name rhand
    direction -1 -3.34077e-007 -5.59631e-007
    length 1.29744
    axis -90 -90 0 xyz
    dof ry rx rz
    limits( -inf , inf )
( -inf , inf )
( -inf , inf )

  end
  begin
    id 21
    name rfingers
    direction 0 0 0
    length 0
    axis 0 0 0 xyz
    dof rz ry rx
    limits( -inf , inf )
( -inf , inf )
( -inf , inf )

  end
  begin
    id 22
    name lclavicle
    direction 0.940017 0.332249 -0.0773232
    length 8.29589
    axis 0 -0 0 xyz
    dof rx ry rz
    limits( -inf , inf )
( -inf , inf )
( -inf , inf )

  end
  begin
    id 23
    name lhumerus
    direction 1 7.41158e-008 -1.44768e-008
    length 12.0042
    axis 180 -30 -90 xyz
    dof rx ry rz
    limits( -inf , inf )
( -inf , inf )
( -inf , inf )

  end
  begin
    id 24
    name lradius
    direction 1 -1.32972e-007 3.10821e-007
    length 8.1902
    axis 180 -30 -90 xyz
    dof rz ry rx
    limits( -inf , inf )
( -inf , inf )
( -inf , inf )

  end
  begin
    id 25
    name lwrist
    direction 1 3.08957e-007 4.01394e-007
    length 4.09509
    axis -90 90 0 xyz
    dof rz rx ry
    limits( -inf , inf )
( -inf , inf )
( -inf , inf )

  end
  begin
    id 26
    name lthumb
    direction 0 0 0
    length 0
    axis 0 0 0 xyz
    dof ry rx rz
    limits( -inf , inf )
( -inf , inf )
( -inf , inf )

  end
  begin
    id 27
    name lhand
    direction 1 -1.64125e-007 -6.99514e-007
    length 1.37229
    axis -90 90 0 xyz
    dof ry rx rz
    limits( -inf , inf )
( -inf , inf )
( -inf , inf )

  end
  begin
    id 28
    name lfingers
    direction 0 0 0
    length 0
    axis 0 0 0 xyz
    dof rz ry rx
    limits( -inf , inf )
( -inf , inf )
( -inf , inf )

  end
  begin
    id 29
    name lowerneck
    direction -0.030798 0.998024 0.0547665
    length 3.93918
    axis 0 -0 0 xyz
    dof rx ry rz
    limits( -inf , inf )
( -inf , inf )
( -inf , inf )

  end
  begin
    id 30
    name upperneck
    direction 0.0531588 0.996611 -0.0627736
    length 3.95491
    axis 0 -0 0 xyz
    dof rx ry rz
    limits( -inf , inf )
( -inf , inf )
( -inf , inf )

  end
  begin
    id 31
    name head
    direction 0 0 0
    length 0
    axis 0 0 0 xyz
    dof rx ry rz
    limits( -inf , inf )
( -inf , inf )
( -inf , inf )

  end
:hierarchy
  begin
    root lfemurDummy rfemurDummy lowerbackDummy
    lfemurDummy lfemur
    lfemur ltibia
    ltibia lfoot
    lfoot ltoes
    rfemurDummy rfemur
    rfemur rtibia
    rtibia rfoot
    rfoot rtoes
    lowerbackDummy lowerback
    lowerback upperback
    upperback thorax
    thorax rclavicle lclavicle lowerneck
    rclavicle rhumerus
    rhumerus rradius
    rradius rwrist
    rwrist rthumb rhand
    rhand rfingers
    lclavicle lhumerus
    lhumerus lradius
    lradius lwrist
    lwrist lthumb lhand
    lhand lfingers
    lowerneck upperneck
    upperneck head
  end

:SAMPLES-PER-SECOND 30
:FULLY-SPECIFIED
:DEGREES
10
root  6.286844494 39.84511068 -0.7834111142 -4.164001465 -30.86799622 6.487976074
lowerback  11.50389957 1.293640018 -4.555049896
upperback  4.395569801 1.121999979 -1.335229993
thorax  -1.911489964 0.5099599957 1.031350017
lowerneck  -5.394470215 3.033750057 -5.812580109
upperneck  7.370100021 4.060029984 6.243989944
head  3.107009888 2.086639881 3.293950081
lclavicle  0 -9.442270133e-015 7.951389973e-016
lhumerus  16.99640083 -15.40909958 76.19930267
lradius  2.312483842e-031 -2.668569377e-031 130.9109955
lwrist  -1.412450015e-030 -0 13.88619995
lhand  -1.496451383e-031 -27.76390076 20.11240005
lfingers  90 7.125020027 -90
lthumb  89.89689403 5.08795885 91.16245106
rclavicle  0 -9.442270133e-015 7.951389973e-016
rhumerus  19.17980003 22.43499947 -78.02390289
rradius  -2.446400446e-031 2.546363858e-031 133.8529968
rwrist  7.062250077e-031 -0 -10.78499985
rhand  -7.920061211e-032 -33.2840004 9.303460121
rfingers  -90 -7.125020027 -90
rthumb  -92.93752616 -24.25625642 -97.11982154
rfemur  -23.60059929 11.01500034 10.58150005
rtibia  -0 0 68.00080109
rfoot  -4.490305625e-032 -10.58430004 -4.280600071
rtoes  5.373923086 19.29304026 -105.8922705
lfemur  -21.30599976 4.142710209 -15.66569996
ltibia  -0 0 51.56280136
lfoot  9.033115502e-032 -12.23890018 6.513810158
ltoes  -4.250644065 -19.5611806 -102.515957
11
root  6.259710958 39.61800102 -0.8585088835 -4.49798584 -31.28799438 6.697998047
lowerback  11.35919952 1.24951005 -4.520679951
upperback  4.358819962 1.074180007 -1.368610024
thorax  -1.867519975 0.4864229858 0.98575598
lowerneck  -5.304590225 3.195790052 -5.74052
upperneck  7.319210052 4.268660069 6.240330219
head  3.058599949 2.191230059 3.280659914
lclavicle  0 -9.442270133e-015 7.951389973e-016
lhumerus  16.66760063 -15.05389977 75.75749969
lradius  2.340347783e-031 -2.644166464e-031 131.5119934
lwrist  -7.062250077e-031 -0 13.74549961
lhand  -1.496451383e-031 -27.76390076 20.11240005
lfingers  90 7.125020027 -90
lthumb  89.89689403 5.08795885 91.16245106
rclavicle  0 -9.442270133e-015 7.951389973e-016
rhumerus  19.5991993 21.99040031 -77.9076004
rradius  -2.460849179e-031 2.532403079e-031 134.1790009
rwrist  7.062250077e-031 -0 -10.98320007
rhand  -7.920061211e-032 -33.2840004 9.303460121
rfingers  -90 -7.125020027 -90
rthumb  -92.93752616 -24.25625642 -97.11982154
rfemur  -21.89310074 11.43560028 10.42920017
rtibia  -0 0 68.28340149
rfoot  -4.496681821e-032 -11.01060009 -3.138299942
rtoes  5.373923086 19.29304026 -105.8922705
lfemur  -20.7507 3.966120005 -15.47509956
ltibia  -0 0 51.64400101
lfoot  4.535201605e-032 -13.28110027 6.27617979
ltoes  -4.250644065 -19.5611806 -102.515957
12
root  6.22235546 39.3771104 -0.9374177362 -4.679992676 -31.69999695 6.713989258
lowerback  11.15460014 1.182180047 -4.449659824
upperback  4.289400101 1.006999969 -1.265319943
thorax  -1.825940013 0.4537239969 1.064440012
lowerneck  -5.027500153 3.345129967 -5.840350151
upperneck  7.126790047 4.472919941 6.199230194
head  2.924580097 2.286010027 3.274790049
lclavicle  0 -9.442270133e-015 7.951389973e-016
lhumerus  16.2010994 -14.62300014 75.42710114
lradius  2.368731953e-031 -2.618769362e-031 132.1300049
lwrist  -1.412450015e-030 -0 13.50809956
lhand  -1.496451383e-031 -27.76390076 20.11240005
lfingers  90 7.125020027 -90
lthumb  89.89689403 5.08795885 91.16245106
rclavicle  0 -9.442270133e-015 7.951389973e-016
rhumerus  20.02739906 21.67700005 -77.71920013
rradius  -2.472799304e-031 2.520735536e-031 134.4499969
rwrist  1.412450015e-030 1.765562519e-031 -10.91909981
rhand  -7.920061211e-032 -33.2840004 9.303460121
rfingers  -90 -7.125020027 -90
rthumb  -92.93752616 -24.25625642 -97.11982154
rfemur  -19.92880058 11.95489979 10.52449989
rtibia  -0 0 67.73429871
rfoot  -4.528964947e-032 -12.94260025 -2.05328989
rtoes  5.373923086 19.29304026 -105.8922705
lfemur  -20.38920021 3.897969961 -15.06869984
ltibia  -0 0 51.94599915
lfoot  4.559537091e-032 -14.52000046 5.448180199
ltoes  -4.250644065 -19.5611806 -102.515957
13
root  6.170577703 39.13466686 -1.010219976 -4.666015625 -32.01199341 6.559020996
lowerback  10.85540009 1.115270019 -4.283490181
upperback  4.235229969 0.9569730163 -1.131979942
thorax  -1.716799974 0.4289099872 1.119840026
lowerneck  -4.854030132 3.412899971 -5.784460068
upperneck  6.834199905 4.569099903 6.075870037
head  2.788399935 2.330640078 3.208650112
lclavicle  0 -9.442270133e-015 7.951389973e-016
lhumerus  15.92399979 -14.30879974 75.06420135
lradius  2.395164699e-031 -2.594615598e-031 132.7109985
lwrist  -7.062250077e-031 -1.765562519e-031 13.24629974
lhand  -1.496451383e-031 -27.76390076 20.11240005
lfingers  90 7.125020027 -90
lthumb  89.89689403 5.08795885 91.16245106
rclavicle  0 -9.442270133e-015 7.951389973e-016
rhumerus  20.44930077 21.30170059 -77.54530334
rradius  -2.487889382e-031 2.505843264e-031 134.7940063
rwrist  2.118675023e-030 -0 -10.84280014
rhand  -7.920061211e-032 -33.2840004 9.303460121
rfingers  -90 -7.125020027 -90
rthumb  -92.93752616 -24.25625642 -97.11982154
rfemur  -17.84950066 12.48980045 10.83950043
rtibia  -0 0 66.39179993
rfoot  -4.617516492e-032 -17.07819939 -2.218090057
rtoes  5.373923086 19.29304026 -105.8922705
lfemur  -20.24799919 3.838619947 -14.48779964
ltibia  -0 0 52.33639908
lfoot  4.592879934e-032 -16.04759979 3.973809958
ltoes  -4.250644065 -19.5611806 -102.515957
